<svg width="971" height="293" viewBox="0 0 971 293" fill="none" xmlns="http://www.w3.org/2000/svg">
<ellipse cx="485.106" cy="146.235" rx="123.055" ry="479.69" transform="rotate(-87.2128 485.106 146.235)" fill="#4A7C59"/>
<path d="M255.951 130.682C259.302 133.01 258.548 138.172 254.662 139.508L233.125 146.911C229.586 148.128 226.037 145.202 226.575 141.512L229.541 121.202C230.08 117.512 234.327 115.655 237.379 117.776L255.951 130.682Z" fill="#D30010"/>
<path d="M369.065 97.0278C369.138 105.431 357.77 108.075 353.902 100.553L344.815 82.8816C342.445 78.2733 344.999 72.7289 350.031 71.559L358.945 69.4862C363.977 68.3163 368.847 72.1343 368.892 77.2832L369.065 97.0278Z" fill="#4A7C59"/>
<path d="M369.065 97.0278C369.138 105.431 357.77 108.075 353.902 100.553L344.815 82.8816C342.445 78.2733 344.999 72.7289 350.031 71.559L358.945 69.4862C363.977 68.3163 368.847 72.1343 368.892 77.2832L369.065 97.0278Z" fill="#4A7C59"/>
<path d="M369.065 97.0278C369.138 105.431 357.77 108.075 353.902 100.553L344.815 82.8816C342.445 78.2733 344.999 72.7289 350.031 71.559L358.945 69.4862C363.977 68.3163 368.847 72.1343 368.892 77.2832L369.065 97.0278Z" fill="#4A7C59"/>
<path d="M369.065 97.0278C369.138 105.431 357.77 108.075 353.902 100.553L344.815 82.8816C342.445 78.2733 344.999 72.7289 350.031 71.559L358.945 69.4862C363.977 68.3163 368.847 72.1343 368.892 77.2832L369.065 97.0278Z" fill="#4A7C59"/>
<path d="M266.065 95.0891C266.138 103.492 254.77 106.136 250.902 98.6147L241.815 80.9429C239.445 76.3346 241.999 70.7902 247.031 69.6203L255.945 67.5475C260.977 66.3776 265.847 70.1956 265.892 75.3445L266.065 95.0891Z" fill="#4A7C59"/>
<path d="M266.065 95.0891C266.138 103.492 254.77 106.136 250.902 98.6147L241.815 80.9429C239.445 76.3346 241.999 70.7902 247.031 69.6203L255.945 67.5475C260.977 66.3776 265.847 70.1956 265.892 75.3445L266.065 95.0891Z" fill="#4A7C59"/>
<path d="M266.065 95.0891C266.138 103.492 254.77 106.136 250.902 98.6147L241.815 80.9429C239.445 76.3346 241.999 70.7902 247.031 69.6203L255.945 67.5475C260.977 66.3776 265.847 70.1956 265.892 75.3445L266.065 95.0891Z" fill="#4A7C59"/>
<path d="M266.065 95.0891C266.138 103.492 254.77 106.136 250.902 98.6147L241.815 80.9429C239.445 76.3346 241.999 70.7902 247.031 69.6203L255.945 67.5475C260.977 66.3776 265.847 70.1956 265.892 75.3445L266.065 95.0891Z" fill="#4A7C59"/>
<path d="M486.104 77.3057C486.8 86.296 474.318 89.1984 470.731 80.8801L469.955 79.0816C467.994 74.5325 470.59 69.3731 475.404 68.2537L476.029 68.1083C480.844 66.9889 485.572 70.4451 485.953 75.3618L486.104 77.3057Z" fill="#4A7C59"/>
<path d="M486.104 77.3057C486.8 86.296 474.318 89.1984 470.731 80.8801L469.955 79.0816C467.994 74.5325 470.59 69.3731 475.404 68.2537L476.029 68.1083C480.844 66.9889 485.572 70.4451 485.953 75.3618L486.104 77.3057Z" fill="#4A7C59"/>
<path d="M486.104 77.3057C486.8 86.296 474.318 89.1984 470.731 80.8801L469.955 79.0816C467.994 74.5325 470.59 69.3731 475.404 68.2537L476.029 68.1083C480.844 66.9889 485.572 70.4451 485.953 75.3618L486.104 77.3057Z" fill="#4A7C59"/>
<path d="M486.104 77.3057C486.8 86.296 474.318 89.1984 470.731 80.8801L469.955 79.0816C467.994 74.5325 470.59 69.3731 475.404 68.2537L476.029 68.1083C480.844 66.9889 485.572 70.4451 485.953 75.3618L486.104 77.3057Z" fill="#4A7C59"/>
<path d="M417.599 94.1458C417.421 102.285 406.52 104.82 402.552 97.6444L393.634 81.5166C391.077 76.892 393.606 71.1716 398.735 69.979L408.052 67.8124C413.181 66.6198 418.113 70.6057 417.998 75.8515L417.599 94.1458Z" fill="#4A7C59"/>
<path d="M417.599 94.1458C417.421 102.285 406.52 104.82 402.552 97.6444L393.634 81.5166C391.077 76.892 393.606 71.1716 398.735 69.979L408.052 67.8124C413.181 66.6198 418.113 70.6057 417.998 75.8515L417.599 94.1458Z" fill="#4A7C59"/>
<path d="M417.599 94.1458C417.421 102.285 406.52 104.82 402.552 97.6444L393.634 81.5166C391.077 76.892 393.606 71.1716 398.735 69.979L408.052 67.8124C413.181 66.6198 418.113 70.6057 417.998 75.8515L417.599 94.1458Z" fill="#4A7C59"/>
<path d="M417.599 94.1458C417.421 102.285 406.52 104.82 402.552 97.6444L393.634 81.5166C391.077 76.892 393.606 71.1716 398.735 69.979L408.052 67.8124C413.181 66.6198 418.113 70.6057 417.998 75.8515L417.599 94.1458Z" fill="#4A7C59"/>
<path d="M418.034 178.125C415.793 170.028 426.2 164.66 431.877 170.986L445.168 185.794C448.633 189.655 447.561 195.617 442.977 197.981L434.932 202.13C430.348 204.495 424.647 202.026 423.28 197.083L418.034 178.125Z" fill="#4A7C59"/>
<path d="M418.034 178.125C415.793 170.028 426.2 164.66 431.877 170.986L445.168 185.794C448.633 189.655 447.561 195.617 442.977 197.981L434.932 202.13C430.348 204.495 424.647 202.026 423.28 197.083L418.034 178.125Z" fill="#4A7C59"/>
<path d="M418.034 178.125C415.793 170.028 426.2 164.66 431.877 170.986L445.168 185.794C448.633 189.655 447.561 195.617 442.977 197.981L434.932 202.13C430.348 204.495 424.647 202.026 423.28 197.083L418.034 178.125Z" fill="#4A7C59"/>
<path d="M418.034 178.125C415.793 170.028 426.2 164.66 431.877 170.986L445.168 185.794C448.633 189.655 447.561 195.617 442.977 197.981L434.932 202.13C430.348 204.495 424.647 202.026 423.28 197.083L418.034 178.125Z" fill="#4A7C59"/>
<path d="M116.027 122.771C113.829 122.688 110.688 123.677 111.328 125.782C120.024 154.38 735.486 117.084 759.671 107.133C781.816 98.0204 734.718 135.148 723.657 143.758C722.182 144.906 720.38 145.467 718.513 145.397L116.027 122.771Z" fill="white"/>
<ellipse cx="283" cy="134.856" rx="70" ry="63.9741" fill="#E64854"/>
<ellipse cx="399" cy="143.58" rx="70" ry="63.9741" fill="#FFCD5F"/>
<ellipse cx="512" cy="127.102" rx="70" ry="63.9741" fill="#94B832"/>
<ellipse cx="624" cy="134.856" rx="70" ry="63.9741" fill="#F46900"/>
<rect x="721" y="103.838" width="50" height="53.3117" rx="15" fill="#D9D9D9"/>
<path d="M770.119 137.154C777.389 139.513 777.537 149.746 770.337 152.302L764.01 154.547C758.847 156.38 753.407 152.595 753.329 147.116L753.267 142.797C753.188 137.318 758.516 133.388 763.73 135.08L770.119 137.154Z" fill="#4A7C59"/>
<path d="M770.119 137.154C777.389 139.513 777.537 149.746 770.337 152.302L764.01 154.547C758.847 156.38 753.407 152.595 753.329 147.116L753.267 142.797C753.188 137.318 758.516 133.388 763.73 135.08L770.119 137.154Z" fill="#4A7C59"/>
<path d="M770.119 137.154C777.389 139.513 777.537 149.746 770.337 152.302L764.01 154.547C758.847 156.38 753.407 152.595 753.329 147.116L753.267 142.797C753.188 137.318 758.516 133.388 763.73 135.08L770.119 137.154Z" fill="#4A7C59"/>
<path d="M770.119 137.154C777.389 139.513 777.537 149.746 770.337 152.302L764.01 154.547C758.847 156.38 753.407 152.595 753.329 147.116L753.267 142.797C753.188 137.318 758.516 133.388 763.73 135.08L770.119 137.154Z" fill="#4A7C59"/>
<path d="M770.119 111.952C777.389 114.311 777.537 124.545 770.337 127.1L764.01 129.345C758.847 131.178 753.407 127.393 753.329 121.914L753.267 117.595C753.188 112.116 758.516 108.186 763.73 109.878L770.119 111.952Z" fill="#4A7C59"/>
<path d="M770.119 111.952C777.389 114.311 777.537 124.545 770.337 127.1L764.01 129.345C758.847 131.178 753.407 127.393 753.329 121.914L753.267 117.595C753.188 112.116 758.516 108.186 763.73 109.878L770.119 111.952Z" fill="#4A7C59"/>
<path d="M770.119 111.952C777.389 114.311 777.537 124.545 770.337 127.1L764.01 129.345C758.847 131.178 753.407 127.393 753.329 121.914L753.267 117.595C753.188 112.116 758.516 108.186 763.73 109.878L770.119 111.952Z" fill="#4A7C59"/>
<path d="M770.119 111.952C777.389 114.311 777.537 124.545 770.337 127.1L764.01 129.345C758.847 131.178 753.407 127.393 753.329 121.914L753.267 117.595C753.188 112.116 758.516 108.186 763.73 109.878L770.119 111.952Z" fill="#4A7C59"/>
<path d="M255.119 125.522C262.389 127.882 262.537 138.115 255.337 140.67L249.01 142.916C243.847 144.748 238.407 140.963 238.329 135.484L238.267 131.165C238.188 125.686 243.516 121.756 248.73 123.448L255.119 125.522Z" fill="#4A7C59"/>
<path d="M255.119 125.522C262.389 127.882 262.537 138.115 255.337 140.67L249.01 142.916C243.847 144.748 238.407 140.963 238.329 135.484L238.267 131.165C238.188 125.686 243.516 121.756 248.73 123.448L255.119 125.522Z" fill="#4A7C59"/>
<path d="M255.119 125.522C262.389 127.882 262.537 138.115 255.337 140.67L249.01 142.916C243.847 144.748 238.407 140.963 238.329 135.484L238.267 131.165C238.188 125.686 243.516 121.756 248.73 123.448L255.119 125.522Z" fill="#4A7C59"/>
<path d="M255.119 125.522C262.389 127.882 262.537 138.115 255.337 140.67L249.01 142.916C243.847 144.748 238.407 140.963 238.329 135.484L238.267 131.165C238.188 125.686 243.516 121.756 248.73 123.448L255.119 125.522Z" fill="#E64854"/>
<rect width="10.8418" height="10.8232" transform="matrix(0.736904 -0.675998 0.698602 0.71551 767.694 131.654)" fill="#F8BE28"/>
<rect width="10.8418" height="10.8232" transform="matrix(0.736904 -0.675998 0.698602 0.71551 766 153.817)" fill="#F8BE28"/>
<rect width="10.8418" height="10.8232" transform="matrix(0.736904 -0.675998 0.698602 0.71551 766 108.259)" fill="#F8BE28"/>
<rect width="10.8418" height="10.8232" transform="matrix(0.736904 -0.675998 0.698602 0.71551 115 89.8427)" fill="white"/>
<rect width="10.8418" height="10.8232" transform="matrix(0.736904 -0.675998 0.698602 0.71551 124 106.321)" fill="white"/>
<rect width="10.8418" height="10.8232" transform="matrix(0.736904 -0.675998 0.698602 0.71551 164 123.768)" fill="white"/>
<rect width="10.8418" height="10.8232" transform="matrix(0.736904 -0.675998 0.698602 0.71551 172 97.597)" fill="white"/>
<rect width="10.8418" height="10.8232" transform="matrix(0.736904 -0.675998 0.698602 0.71551 148 100.505)" fill="white"/>
<rect width="10.8418" height="10.8232" transform="matrix(0.736904 -0.675998 0.698602 0.71551 139 78.2109)" fill="white"/>
<path d="M157.184 93.862C176.326 -20.3015 1086.64 292.692 784.343 133.769" stroke="#F8BE28" stroke-width="4"/>
<ellipse rx="54.9979" ry="20.8409" transform="matrix(0.999412 0.034297 -0.0365008 0.999334 138.726 128.49)" fill="white"/>
<path d="M143.307 134.648C143.809 134.201 144.615 134.201 145.117 134.648L148.438 137.046H148.496C149.168 137.654 149.168 138.639 148.496 139.247C147.824 139.855 146.735 139.855 146.063 139.247L143.307 136.421L143.202 136.315C143.007 136.094 142.9 135.819 142.9 135.534C142.9 135.202 143.046 134.883 143.307 134.648ZM134.151 116.439C137.108 116.439 139.945 117.502 142.036 119.393C144.127 121.284 145.302 123.849 145.302 126.524C145.302 132.093 140.309 136.608 134.151 136.608C127.992 136.608 123 132.093 123 126.524C123 120.954 127.992 116.439 134.151 116.439Z" fill="#F8BE28"/>
<path d="M307.398 125.119H291.602C291.716 123.775 291.64 122.562 291.375 121.483C291.11 120.403 290.655 119.475 290.011 118.699C289.367 117.903 288.525 117.297 287.483 116.881C286.441 116.464 285.201 116.256 283.761 116.256C280.996 116.256 278.525 116.947 276.347 118.33C274.169 119.693 272.36 121.653 270.92 124.21C269.481 126.748 268.458 129.778 267.852 133.301C267.322 136.71 267.303 139.542 267.795 141.795C268.307 144.049 269.301 145.735 270.778 146.852C272.275 147.97 274.216 148.528 276.602 148.528C278.193 148.528 279.651 148.339 280.977 147.96C282.322 147.581 283.515 147.042 284.557 146.341C285.617 145.621 286.517 144.769 287.256 143.784C288.013 142.78 288.591 141.672 288.989 140.46H304.898C304.292 142.922 303.212 145.441 301.659 148.017C300.106 150.574 298.098 152.932 295.636 155.091C293.174 157.231 290.276 158.964 286.943 160.29C283.61 161.615 279.86 162.278 275.693 162.278C270.239 162.278 265.532 161.085 261.574 158.699C257.634 156.312 254.775 152.828 252.994 148.244C251.233 143.661 250.883 138.074 251.943 131.483C253.004 125.119 255.097 119.788 258.222 115.489C261.347 111.189 265.144 107.951 269.614 105.773C274.083 103.595 278.837 102.506 283.875 102.506C287.682 102.506 291.091 103.008 294.102 104.011C297.133 105.015 299.68 106.483 301.744 108.415C303.828 110.328 305.362 112.686 306.347 115.489C307.331 118.292 307.682 121.502 307.398 125.119ZM329.734 162.278C324.999 162.278 321.098 161.341 318.03 159.466C314.981 157.572 312.84 154.939 311.609 151.568C310.378 148.178 310.132 144.248 310.871 139.778C311.609 135.309 313.153 131.388 315.501 128.017C317.85 124.627 320.871 121.994 324.564 120.119C328.257 118.225 332.481 117.278 337.234 117.278C341.95 117.278 345.833 118.225 348.882 120.119C351.95 121.994 354.1 124.627 355.331 128.017C356.581 131.388 356.837 135.309 356.098 139.778C355.359 144.248 353.806 148.178 351.439 151.568C349.071 154.939 346.041 157.572 342.348 159.466C338.674 161.341 334.469 162.278 329.734 162.278ZM331.666 150.687C333.03 150.687 334.27 150.242 335.388 149.352C336.524 148.462 337.49 147.193 338.285 145.545C339.1 143.898 339.696 141.937 340.075 139.665C340.454 137.373 340.511 135.413 340.246 133.784C339.981 132.136 339.431 130.867 338.598 129.977C337.765 129.087 336.666 128.642 335.302 128.642C333.939 128.642 332.689 129.087 331.552 129.977C330.416 130.867 329.45 132.136 328.655 133.784C327.859 135.413 327.272 137.373 326.893 139.665C326.515 141.937 326.448 143.898 326.695 145.545C326.96 147.193 327.509 148.462 328.342 149.352C329.195 150.242 330.302 150.687 331.666 150.687ZM379.734 162.278C374.999 162.278 371.098 161.341 368.03 159.466C364.981 157.572 362.84 154.939 361.609 151.568C360.378 148.178 360.132 144.248 360.871 139.778C361.609 135.309 363.153 131.388 365.501 128.017C367.85 124.627 370.871 121.994 374.564 120.119C378.257 118.225 382.481 117.278 387.234 117.278C391.95 117.278 395.833 118.225 398.882 120.119C401.95 121.994 404.1 124.627 405.331 128.017C406.581 131.388 406.837 135.309 406.098 139.778C405.359 144.248 403.806 148.178 401.439 151.568C399.071 154.939 396.041 157.572 392.348 159.466C388.674 161.341 384.469 162.278 379.734 162.278ZM381.666 150.687C383.03 150.687 384.27 150.242 385.388 149.352C386.524 148.462 387.49 147.193 388.285 145.545C389.1 143.898 389.696 141.937 390.075 139.665C390.454 137.373 390.511 135.413 390.246 133.784C389.981 132.136 389.431 130.867 388.598 129.977C387.765 129.087 386.666 128.642 385.302 128.642C383.939 128.642 382.689 129.087 381.552 129.977C380.416 130.867 379.45 132.136 378.655 133.784C377.859 135.413 377.272 137.373 376.893 139.665C376.515 141.937 376.448 143.898 376.695 145.545C376.96 147.193 377.509 148.462 378.342 149.352C379.195 150.242 380.302 150.687 381.666 150.687ZM424.621 151.142L427.802 132.506H429.848L442.916 117.847H460.53L439.052 140.687H434.621L424.621 151.142ZM408.825 161.483L418.484 103.301H434.166L424.507 161.483H408.825ZM435.757 161.483L428.598 144.21L440.757 133.074L453.712 161.483H435.757ZM517.398 125.119H501.602C501.716 123.775 501.64 122.562 501.375 121.483C501.11 120.403 500.655 119.475 500.011 118.699C499.367 117.903 498.525 117.297 497.483 116.881C496.441 116.464 495.201 116.256 493.761 116.256C490.996 116.256 488.525 116.947 486.347 118.33C484.169 119.693 482.36 121.653 480.92 124.21C479.481 126.748 478.458 129.778 477.852 133.301C477.322 136.71 477.303 139.542 477.795 141.795C478.307 144.049 479.301 145.735 480.778 146.852C482.275 147.97 484.216 148.528 486.602 148.528C488.193 148.528 489.651 148.339 490.977 147.96C492.322 147.581 493.515 147.042 494.557 146.341C495.617 145.621 496.517 144.769 497.256 143.784C498.013 142.78 498.591 141.672 498.989 140.46H514.898C514.292 142.922 513.212 145.441 511.659 148.017C510.106 150.574 508.098 152.932 505.636 155.091C503.174 157.231 500.276 158.964 496.943 160.29C493.61 161.615 489.86 162.278 485.693 162.278C480.239 162.278 475.532 161.085 471.574 158.699C467.634 156.312 464.775 152.828 462.994 148.244C461.233 143.661 460.883 138.074 461.943 131.483C463.004 125.119 465.097 119.788 468.222 115.489C471.347 111.189 475.144 107.951 479.614 105.773C484.083 103.595 488.837 102.506 493.875 102.506C497.682 102.506 501.091 103.008 504.102 104.011C507.133 105.015 509.68 106.483 511.744 108.415C513.828 110.328 515.362 112.686 516.347 115.489C517.331 118.292 517.682 121.502 517.398 125.119ZM544.166 103.301L534.507 161.483H518.825L528.484 103.301H544.166ZM542.497 161.483L549.77 117.847H565.452L558.179 161.483H542.497ZM558.293 113.301C556.171 113.301 554.457 112.6 553.151 111.199C551.844 109.778 551.361 108.093 551.702 106.142C552.043 104.153 553.084 102.468 554.827 101.085C556.569 99.6837 558.501 98.9829 560.622 98.9829C562.762 98.9829 564.467 99.6837 565.736 101.085C567.005 102.468 567.478 104.153 567.156 106.142C566.853 108.093 565.83 109.778 564.088 111.199C562.365 112.6 560.433 113.301 558.293 113.301ZM587.078 162.278C582.343 162.278 578.442 161.341 575.374 159.466C572.305 157.572 570.156 154.939 568.925 151.568C567.694 148.178 567.457 144.248 568.214 139.778C568.934 135.309 570.468 131.388 572.817 128.017C575.184 124.627 578.214 121.994 581.908 120.119C585.62 118.225 589.843 117.278 594.578 117.278C598.858 117.278 602.428 118.055 605.288 119.608C608.167 121.142 610.222 123.32 611.453 126.142C612.703 128.945 613.025 132.24 612.419 136.028H597.874C598.044 133.756 597.675 132.013 596.766 130.801C595.875 129.589 594.578 128.983 592.874 128.983C591.472 128.983 590.184 129.381 589.01 130.176C587.855 130.953 586.86 132.136 586.027 133.727C585.213 135.299 584.616 137.278 584.237 139.665C583.858 142.051 583.811 144.04 584.095 145.631C584.398 147.203 584.985 148.386 585.856 149.182C586.747 149.958 587.874 150.347 589.237 150.347C590.411 150.347 591.491 150.081 592.476 149.551C593.48 149.002 594.341 148.206 595.061 147.165C595.8 146.104 596.358 144.816 596.737 143.301H611.283C610.563 147.165 609.114 150.517 606.936 153.358C604.758 156.199 601.983 158.396 598.612 159.949C595.241 161.502 591.396 162.278 587.078 162.278ZM630.48 151.142L633.662 132.506H635.707L648.776 117.847H666.389L644.912 140.687H640.48L630.48 151.142ZM614.685 161.483L624.344 103.301H640.026L630.366 161.483H614.685ZM641.616 161.483L634.457 144.21L646.616 133.074L659.571 161.483H641.616Z" fill="white"/>
<path d="M256.119 124.553C263.389 126.912 263.537 137.145 256.337 139.701L250.01 141.946C244.847 143.779 239.407 139.994 239.329 134.515L239.267 130.196C239.188 124.717 244.516 120.787 249.73 122.479L256.119 124.553Z" fill="#4A7C59"/>
<path d="M256.119 124.553C263.389 126.912 263.537 137.145 256.337 139.701L250.01 141.946C244.847 143.779 239.407 139.994 239.329 134.515L239.267 130.196C239.188 124.717 244.516 120.787 249.73 122.479L256.119 124.553Z" fill="#4A7C59"/>
<path d="M256.119 124.553C263.389 126.912 263.537 137.145 256.337 139.701L250.01 141.946C244.847 143.779 239.407 139.994 239.329 134.515L239.267 130.196C239.188 124.717 244.516 120.787 249.73 122.479L256.119 124.553Z" fill="#4A7C59"/>
<path d="M256.119 124.553C263.389 126.912 263.537 137.145 256.337 139.701L250.01 141.946C244.847 143.779 239.407 139.994 239.329 134.515L239.267 130.196C239.188 124.717 244.516 120.787 249.73 122.479L256.119 124.553Z" fill="#E64854"/>
</svg>
