<svg width="765" height="145" viewBox="0 0 765 145" fill="none" xmlns="http://www.w3.org/2000/svg">
<path d="M172.951 67.6819C176.302 70.0109 175.548 75.1719 171.662 76.5079L150.125 83.912C146.586 85.128 143.037 82.2019 143.576 78.5119L146.541 58.202C147.08 54.512 151.327 52.656 154.379 54.776L172.951 67.6819Z" fill="#D30010"/>
<path d="M286.065 34.0278C286.139 42.431 274.77 45.075 270.902 37.5534L261.815 19.8816C259.446 15.2733 261.999 9.72886 267.031 8.55896L275.945 6.48616C280.977 5.31626 285.847 9.13426 285.892 14.2832L286.065 34.0278Z" fill="#4A7C59"/>
<path d="M286.065 34.0278C286.139 42.431 274.77 45.075 270.902 37.5534L261.815 19.8816C259.446 15.2733 261.999 9.72886 267.031 8.55896L275.945 6.48616C280.977 5.31626 285.847 9.13426 285.892 14.2832L286.065 34.0278Z" fill="#4A7C59"/>
<path d="M286.065 34.0278C286.139 42.431 274.77 45.075 270.902 37.5534L261.815 19.8816C259.446 15.2733 261.999 9.72886 267.031 8.55896L275.945 6.48616C280.977 5.31626 285.847 9.13426 285.892 14.2832L286.065 34.0278Z" fill="#4A7C59"/>
<path d="M286.065 34.0278C286.139 42.431 274.77 45.075 270.902 37.5534L261.815 19.8816C259.446 15.2733 261.999 9.72886 267.031 8.55896L275.945 6.48616C280.977 5.31626 285.847 9.13426 285.892 14.2832L286.065 34.0278Z" fill="#4A7C59"/>
<path d="M183.065 32.0893C183.139 40.4927 171.77 43.1359 167.902 35.615L158.815 17.9431C156.446 13.3348 158.999 7.79035 164.031 6.62055L172.945 4.54765C177.977 3.37785 182.847 7.19586 182.892 12.3447L183.065 32.0893Z" fill="#4A7C59"/>
<path d="M183.065 32.0893C183.139 40.4927 171.77 43.1359 167.902 35.615L158.815 17.9431C156.446 13.3348 158.999 7.79035 164.031 6.62055L172.945 4.54765C177.977 3.37785 182.847 7.19586 182.892 12.3447L183.065 32.0893Z" fill="#4A7C59"/>
<path d="M183.065 32.0893C183.139 40.4927 171.77 43.1359 167.902 35.615L158.815 17.9431C156.446 13.3348 158.999 7.79035 164.031 6.62055L172.945 4.54765C177.977 3.37785 182.847 7.19586 182.892 12.3447L183.065 32.0893Z" fill="#4A7C59"/>
<path d="M183.065 32.0893C183.139 40.4927 171.77 43.1359 167.902 35.615L158.815 17.9431C156.446 13.3348 158.999 7.79035 164.031 6.62055L172.945 4.54765C177.977 3.37785 182.847 7.19586 182.892 12.3447L183.065 32.0893Z" fill="#4A7C59"/>
<path d="M403.104 14.3059C403.8 23.2963 391.318 26.1986 387.731 17.8804L386.955 16.0819C384.994 11.5327 387.59 6.37328 392.404 5.25388L393.029 5.10858C397.844 3.98918 402.572 7.44528 402.953 12.3621L403.104 14.3059Z" fill="#4A7C59"/>
<path d="M403.104 14.3059C403.8 23.2963 391.318 26.1986 387.731 17.8804L386.955 16.0819C384.994 11.5327 387.59 6.37328 392.404 5.25388L393.029 5.10858C397.844 3.98918 402.572 7.44528 402.953 12.3621L403.104 14.3059Z" fill="#4A7C59"/>
<path d="M403.104 14.3059C403.8 23.2963 391.318 26.1986 387.731 17.8804L386.955 16.0819C384.994 11.5327 387.59 6.37328 392.404 5.25388L393.029 5.10858C397.844 3.98918 402.572 7.44528 402.953 12.3621L403.104 14.3059Z" fill="#4A7C59"/>
<path d="M403.104 14.3059C403.8 23.2963 391.318 26.1986 387.731 17.8804L386.955 16.0819C384.994 11.5327 387.59 6.37328 392.404 5.25388L393.029 5.10858C397.844 3.98918 402.572 7.44528 402.953 12.3621L403.104 14.3059Z" fill="#4A7C59"/>
<path d="M334.599 31.1458C334.421 39.2852 323.52 41.82 319.552 34.6444L310.634 18.5166C308.077 13.8921 310.606 8.17157 315.735 6.97897L325.052 4.81238C330.181 3.61978 335.113 7.60568 334.998 12.8515L334.599 31.1458Z" fill="#4A7C59"/>
<path d="M334.599 31.1458C334.421 39.2852 323.52 41.82 319.552 34.6444L310.634 18.5166C308.077 13.8921 310.606 8.17157 315.735 6.97897L325.052 4.81238C330.181 3.61978 335.113 7.60568 334.998 12.8515L334.599 31.1458Z" fill="#4A7C59"/>
<path d="M334.599 31.1458C334.421 39.2852 323.52 41.82 319.552 34.6444L310.634 18.5166C308.077 13.8921 310.606 8.17157 315.735 6.97897L325.052 4.81238C330.181 3.61978 335.113 7.60568 334.998 12.8515L334.599 31.1458Z" fill="#4A7C59"/>
<path d="M334.599 31.1458C334.421 39.2852 323.52 41.82 319.552 34.6444L310.634 18.5166C308.077 13.8921 310.606 8.17157 315.735 6.97897L325.052 4.81238C330.181 3.61978 335.113 7.60568 334.998 12.8515L334.599 31.1458Z" fill="#4A7C59"/>
<path d="M335.034 115.126C332.793 107.028 343.2 101.661 348.877 107.986L362.168 122.794C365.633 126.655 364.561 132.617 359.977 134.981L351.932 139.131C347.348 141.495 341.647 139.026 340.28 134.083L335.034 115.126Z" fill="#4A7C59"/>
<path d="M335.034 115.126C332.793 107.028 343.2 101.661 348.877 107.986L362.168 122.794C365.633 126.655 364.561 132.617 359.977 134.981L351.932 139.131C347.348 141.495 341.647 139.026 340.28 134.083L335.034 115.126Z" fill="#4A7C59"/>
<path d="M335.034 115.126C332.793 107.028 343.2 101.661 348.877 107.986L362.168 122.794C365.633 126.655 364.561 132.617 359.977 134.981L351.932 139.131C347.348 141.495 341.647 139.026 340.28 134.083L335.034 115.126Z" fill="#4A7C59"/>
<path d="M335.034 115.126C332.793 107.028 343.2 101.661 348.877 107.986L362.168 122.794C365.633 126.655 364.561 132.617 359.977 134.981L351.932 139.131C347.348 141.495 341.647 139.026 340.28 134.083L335.034 115.126Z" fill="#4A7C59"/>
<path d="M33.0274 59.771C30.829 59.688 27.688 60.677 28.3278 62.782C37.0237 91.38 652.487 54.084 676.671 44.133C698.816 35.0204 651.718 72.148 640.657 80.758C639.183 81.906 637.38 82.467 635.513 82.397L33.0274 59.771Z" fill="white"/>
<path d="M200 135.83C238.66 135.83 270 107.188 270 71.8559C270 36.524 238.66 7.88184 200 7.88184C161.34 7.88184 130 36.524 130 71.8559C130 107.188 161.34 135.83 200 135.83Z" fill="#E64854"/>
<path d="M316 144.554C354.66 144.554 386 115.912 386 80.5801C386 45.2481 354.66 16.606 316 16.606C277.34 16.606 246 45.2481 246 80.5801C246 115.912 277.34 144.554 316 144.554Z" fill="#FFCD5F"/>
<path d="M429 128.076C467.66 128.076 499 99.4339 499 64.102C499 28.7701 467.66 0.12793 429 0.12793C390.34 0.12793 359 28.7701 359 64.102C359 99.4339 390.34 128.076 429 128.076Z" fill="#94B832"/>
<path d="M541 135.83C579.66 135.83 611 107.188 611 71.8559C611 36.524 579.66 7.88184 541 7.88184C502.34 7.88184 471 36.524 471 71.8559C471 107.188 502.34 135.83 541 135.83Z" fill="#F46900"/>
<path d="M673 40.8384H653C644.716 40.8384 638 47.5541 638 55.8384V79.1501C638 87.4343 644.716 94.1501 653 94.1501H673C681.284 94.1501 688 87.4343 688 79.1501V55.8384C688 47.5541 681.284 40.8384 673 40.8384Z" fill="#D9D9D9"/>
<path d="M687.119 74.1539C694.389 76.5129 694.537 86.7459 687.337 89.3019L681.01 91.5469C675.847 93.3799 670.408 89.5949 670.329 84.1159L670.267 79.7969C670.188 74.3179 675.516 70.3879 680.73 72.0799L687.119 74.1539Z" fill="#4A7C59"/>
<path d="M687.119 74.1539C694.389 76.5129 694.537 86.7459 687.337 89.3019L681.01 91.5469C675.847 93.3799 670.408 89.5949 670.329 84.1159L670.267 79.7969C670.188 74.3179 675.516 70.3879 680.73 72.0799L687.119 74.1539Z" fill="#4A7C59"/>
<path d="M687.119 74.1539C694.389 76.5129 694.537 86.7459 687.337 89.3019L681.01 91.5469C675.847 93.3799 670.408 89.5949 670.329 84.1159L670.267 79.7969C670.188 74.3179 675.516 70.3879 680.73 72.0799L687.119 74.1539Z" fill="#4A7C59"/>
<path d="M687.119 74.1539C694.389 76.5129 694.537 86.7459 687.337 89.3019L681.01 91.5469C675.847 93.3799 670.408 89.5949 670.329 84.1159L670.267 79.7969C670.188 74.3179 675.516 70.3879 680.73 72.0799L687.119 74.1539Z" fill="#4A7C59"/>
<path d="M687.119 48.952C694.389 51.311 694.537 61.545 687.337 64.1L681.01 66.345C675.847 68.178 670.408 64.393 670.329 58.914L670.267 54.595C670.188 49.116 675.516 45.186 680.73 46.878L687.119 48.952Z" fill="#4A7C59"/>
<path d="M687.119 48.952C694.389 51.311 694.537 61.545 687.337 64.1L681.01 66.345C675.847 68.178 670.408 64.393 670.329 58.914L670.267 54.595C670.188 49.116 675.516 45.186 680.73 46.878L687.119 48.952Z" fill="#4A7C59"/>
<path d="M687.119 48.952C694.389 51.311 694.537 61.545 687.337 64.1L681.01 66.345C675.847 68.178 670.408 64.393 670.329 58.914L670.267 54.595C670.188 49.116 675.516 45.186 680.73 46.878L687.119 48.952Z" fill="#4A7C59"/>
<path d="M687.119 48.952C694.389 51.311 694.537 61.545 687.337 64.1L681.01 66.345C675.847 68.178 670.408 64.393 670.329 58.914L670.267 54.595C670.188 49.116 675.516 45.186 680.73 46.878L687.119 48.952Z" fill="#4A7C59"/>
<path d="M172.119 62.522C179.389 64.882 179.537 75.115 172.337 77.67L166.01 79.916C160.847 81.748 155.408 77.964 155.329 72.484L155.267 68.165C155.188 62.686 160.516 58.756 165.73 60.448L172.119 62.522Z" fill="#4A7C59"/>
<path d="M172.119 62.522C179.389 64.882 179.537 75.115 172.337 77.67L166.01 79.916C160.847 81.748 155.408 77.964 155.329 72.484L155.267 68.165C155.188 62.686 160.516 58.756 165.73 60.448L172.119 62.522Z" fill="#4A7C59"/>
<path d="M172.119 62.522C179.389 64.882 179.537 75.115 172.337 77.67L166.01 79.916C160.847 81.748 155.408 77.964 155.329 72.484L155.267 68.165C155.188 62.686 160.516 58.756 165.73 60.448L172.119 62.522Z" fill="#4A7C59"/>
<path d="M172.119 62.522C179.389 64.882 179.537 75.115 172.337 77.67L166.01 79.916C160.847 81.748 155.408 77.964 155.329 72.484L155.267 68.165C155.188 62.686 160.516 58.756 165.73 60.448L172.119 62.522Z" fill="#E64854"/>
<path d="M692.683 61.325L684.694 68.6541L692.255 76.3982L700.245 69.0691L692.683 61.325Z" fill="#F8BE28"/>
<path d="M690.989 83.488L683 90.817L690.561 98.5611L698.55 91.2321L690.989 83.488Z" fill="#F8BE28"/>
<path d="M690.989 37.931L683 45.26L690.561 53.0041L698.55 45.6751L690.989 37.931Z" fill="#F8BE28"/>
<path d="M39.9894 19.5137L32 26.8428L39.5611 34.5869L47.5505 27.2578L39.9894 19.5137Z" fill="white"/>
<path d="M48.9894 35.992L41 43.321L48.5611 51.0652L56.5505 43.7361L48.9894 35.992Z" fill="white"/>
<path d="M88.9894 53.4389L81 60.7679L88.5611 68.5121L96.5505 61.183L88.9894 53.4389Z" fill="white"/>
<path d="M96.9894 27.2681L89 34.5972L96.5611 42.3413L104.55 35.0122L96.9894 27.2681Z" fill="white"/>
<path d="M72.9894 30.1761L65 37.5051L72.5611 45.2492L80.5505 37.9202L72.9894 30.1761Z" fill="white"/>
<path d="M63.9894 7.88215L56 15.2112L63.5611 22.9553L71.5505 15.6263L63.9894 7.88215Z" fill="white"/>
<path d="M74.1843 30.862C93.3259 -83.3015 1003.64 229.692 701.344 70.769" stroke="#F8BE28" stroke-width="4"/>
<path d="M54.9656 86.317C85.3223 87.3588 110.272 78.8787 110.692 67.3763C111.112 55.8738 86.8437 45.7048 56.487 44.663C26.1304 43.6212 1.1809 52.1013 0.760775 63.6038C0.340647 75.1062 24.609 85.2753 54.9656 86.317Z" fill="white"/>
<path d="M60.3069 71.648C60.8094 71.201 61.6149 71.201 62.1174 71.648L65.4384 74.047H65.4961C66.168 74.654 66.168 75.639 65.4961 76.247C64.8242 76.855 63.7348 76.855 63.0629 76.247L60.3069 73.421L60.2023 73.315C60.0075 73.095 59.8999 72.82 59.8999 72.534C59.8999 72.202 60.0464 71.883 60.3069 71.648ZM51.1509 53.439C54.1083 53.439 56.9446 54.502 59.0358 56.393C61.127 58.284 62.3019 60.849 62.3019 63.524C62.3019 69.094 57.3094 73.609 51.1509 73.609C44.9924 73.609 40 69.094 40 63.524C40 57.954 44.9924 53.439 51.1509 53.439Z" fill="#F8BE28"/>
<path d="M224.398 62.12H208.602C208.716 60.775 208.64 59.563 208.375 58.483C208.11 57.404 207.655 56.476 207.011 55.699C206.367 54.904 205.525 54.298 204.483 53.881C203.441 53.464 202.201 53.256 200.761 53.256C197.996 53.256 195.525 53.947 193.347 55.33C191.169 56.693 189.36 58.654 187.92 61.21C186.481 63.748 185.458 66.7789 184.852 70.3009C184.322 73.7099 184.303 76.542 184.795 78.796C185.307 81.049 186.301 82.735 187.778 83.852C189.275 84.97 191.216 85.529 193.602 85.529C195.193 85.529 196.652 85.339 197.977 84.96C199.322 84.582 200.515 84.042 201.557 83.341C202.617 82.621 203.517 81.769 204.256 80.784C205.013 79.781 205.591 78.673 205.989 77.46H221.898C221.292 79.923 220.212 82.441 218.659 85.017C217.106 87.574 215.098 89.932 212.636 92.091C210.174 94.231 207.277 95.9639 203.943 97.2899C200.61 98.6159 196.86 99.279 192.693 99.279C187.239 99.279 182.532 98.085 178.574 95.699C174.634 93.313 171.775 89.8279 169.994 85.2449C168.233 80.6609 167.883 75.074 168.943 68.483C170.004 62.12 172.097 56.788 175.222 52.489C178.347 48.19 182.144 44.951 186.614 42.773C191.083 40.5949 195.837 39.5059 200.875 39.5059C204.682 39.5059 208.091 40.0078 211.102 41.012C214.133 42.015 216.68 43.483 218.744 45.415C220.828 47.328 222.362 49.686 223.347 52.489C224.331 55.292 224.682 58.502 224.398 62.12ZM246.734 99.279C242 99.279 238.098 98.341 235.03 96.466C231.981 94.572 229.84 91.9399 228.609 88.5679C227.378 85.1779 227.132 81.248 227.871 76.779C228.609 72.309 230.153 68.388 232.501 65.017C234.85 61.627 237.871 58.995 241.564 57.12C245.257 55.226 249.481 54.279 254.234 54.279C258.95 54.279 262.833 55.226 265.882 57.12C268.95 58.995 271.1 61.627 272.331 65.017C273.581 68.388 273.837 72.309 273.098 76.779C272.359 81.248 270.806 85.1779 268.439 88.5679C266.071 91.9399 263.041 94.572 259.348 96.466C255.674 98.341 251.469 99.279 246.734 99.279ZM248.666 87.688C250.03 87.688 251.27 87.243 252.388 86.352C253.524 85.462 254.49 84.193 255.286 82.546C256.1 80.898 256.696 78.9379 257.075 76.6649C257.454 74.3729 257.511 72.413 257.246 70.784C256.981 69.137 256.431 67.868 255.598 66.977C254.765 66.087 253.666 65.642 252.303 65.642C250.939 65.642 249.689 66.087 248.553 66.977C247.416 67.868 246.45 69.137 245.655 70.784C244.859 72.413 244.272 74.3729 243.893 76.6649C243.515 78.9379 243.448 80.898 243.695 82.546C243.96 84.193 244.509 85.462 245.342 86.352C246.195 87.243 247.303 87.688 248.666 87.688ZM296.734 99.279C292 99.279 288.098 98.341 285.03 96.466C281.981 94.572 279.84 91.9399 278.609 88.5679C277.378 85.1779 277.132 81.248 277.871 76.779C278.609 72.309 280.153 68.388 282.501 65.017C284.85 61.627 287.871 58.995 291.564 57.12C295.257 55.226 299.481 54.279 304.234 54.279C308.95 54.279 312.833 55.226 315.882 57.12C318.95 58.995 321.1 61.627 322.331 65.017C323.581 68.388 323.837 72.309 323.098 76.779C322.359 81.248 320.806 85.1779 318.439 88.5679C316.071 91.9399 313.041 94.572 309.348 96.466C305.674 98.341 301.469 99.279 296.734 99.279ZM298.666 87.688C300.03 87.688 301.27 87.243 302.388 86.352C303.524 85.462 304.49 84.193 305.286 82.546C306.1 80.898 306.696 78.9379 307.075 76.6649C307.454 74.3729 307.511 72.413 307.246 70.784C306.981 69.137 306.431 67.868 305.598 66.977C304.765 66.087 303.666 65.642 302.303 65.642C300.939 65.642 299.689 66.087 298.553 66.977C297.416 67.868 296.45 69.137 295.655 70.784C294.859 72.413 294.272 74.3729 293.893 76.6649C293.515 78.9379 293.448 80.898 293.695 82.546C293.96 84.193 294.509 85.462 295.342 86.352C296.195 87.243 297.303 87.688 298.666 87.688ZM341.621 88.142L344.803 69.506H346.848L359.916 54.847H377.53L356.053 77.688H351.621L341.621 88.142ZM325.825 98.483L335.484 40.3013H351.166L341.507 98.483H325.825ZM352.757 98.483L345.598 81.21L357.757 70.074L370.712 98.483H352.757ZM434.398 62.12H418.602C418.716 60.775 418.64 59.563 418.375 58.483C418.11 57.404 417.655 56.476 417.011 55.699C416.367 54.904 415.525 54.298 414.483 53.881C413.441 53.464 412.201 53.256 410.761 53.256C407.996 53.256 405.525 53.947 403.347 55.33C401.169 56.693 399.36 58.654 397.92 61.21C396.481 63.748 395.458 66.7789 394.852 70.3009C394.322 73.7099 394.303 76.542 394.795 78.796C395.307 81.049 396.301 82.735 397.778 83.852C399.275 84.97 401.216 85.529 403.602 85.529C405.193 85.529 406.652 85.339 407.977 84.96C409.322 84.582 410.515 84.042 411.557 83.341C412.617 82.621 413.517 81.769 414.256 80.784C415.013 79.781 415.591 78.673 415.989 77.46H431.898C431.292 79.923 430.212 82.441 428.659 85.017C427.106 87.574 425.098 89.932 422.636 92.091C420.174 94.231 417.277 95.9639 413.943 97.2899C410.61 98.6159 406.86 99.279 402.693 99.279C397.239 99.279 392.532 98.085 388.574 95.699C384.634 93.313 381.775 89.8279 379.994 85.2449C378.233 80.6609 377.883 75.074 378.943 68.483C380.004 62.12 382.097 56.788 385.222 52.489C388.347 48.19 392.144 44.951 396.614 42.773C401.083 40.5949 405.837 39.5059 410.875 39.5059C414.682 39.5059 418.091 40.0078 421.102 41.012C424.133 42.015 426.68 43.483 428.744 45.415C430.828 47.328 432.362 49.686 433.347 52.489C434.331 55.292 434.682 58.502 434.398 62.12ZM461.166 40.3013L451.507 98.483H435.825L445.484 40.3013H461.166ZM459.497 98.483L466.77 54.847H482.452L475.179 98.483H459.497ZM475.293 50.301C473.171 50.301 471.457 49.601 470.151 48.199C468.844 46.779 468.361 45.093 468.702 43.142C469.043 41.154 470.084 39.468 471.827 38.0854C473.569 36.6839 475.501 35.9832 477.622 35.9832C479.762 35.9832 481.467 36.6839 482.736 38.0854C484.005 39.468 484.478 41.154 484.156 43.142C483.853 45.093 482.83 46.779 481.088 48.199C479.365 49.601 477.433 50.301 475.293 50.301ZM504.078 99.279C499.343 99.279 495.442 98.341 492.374 96.466C489.305 94.572 487.156 91.9399 485.925 88.5679C484.694 85.1779 484.457 81.248 485.214 76.779C485.934 72.309 487.468 68.388 489.817 65.017C492.184 61.627 495.214 58.995 498.908 57.12C502.62 55.226 506.843 54.279 511.578 54.279C515.858 54.279 519.429 55.055 522.288 56.608C525.167 58.142 527.222 60.32 528.453 63.142C529.703 65.945 530.025 69.241 529.419 73.029H514.874C515.044 70.756 514.675 69.013 513.766 67.801C512.875 66.589 511.578 65.983 509.874 65.983C508.472 65.983 507.184 66.381 506.01 67.176C504.855 67.953 503.86 69.137 503.027 70.727C502.213 72.299 501.616 74.2789 501.237 76.6649C500.858 79.0509 500.811 81.04 501.095 82.631C501.398 84.2029 501.985 85.387 502.857 86.182C503.747 86.959 504.874 87.347 506.237 87.347C507.411 87.347 508.491 87.0819 509.476 86.5509C510.48 86.0019 511.341 85.2069 512.061 84.1649C512.8 83.1039 513.358 81.8159 513.737 80.3009H528.283C527.563 84.1649 526.114 87.517 523.936 90.358C521.758 93.199 518.983 95.396 515.612 96.949C512.241 98.502 508.396 99.279 504.078 99.279ZM547.48 88.142L550.662 69.506H552.707L565.776 54.847H583.389L561.912 77.688H557.48L547.48 88.142ZM531.685 98.483L541.344 40.3013H557.026L547.366 98.483H531.685ZM558.616 98.483L551.457 81.21L563.616 70.074L576.571 98.483H558.616Z" fill="white"/>
<path d="M173.119 61.553C180.389 63.913 180.537 74.146 173.337 76.701L167.01 78.947C161.847 80.779 156.408 76.994 156.329 71.515L156.267 67.196C156.188 61.717 161.516 57.787 166.73 59.479L173.119 61.553Z" fill="#4A7C59"/>
<path d="M173.119 61.553C180.389 63.913 180.537 74.146 173.337 76.701L167.01 78.947C161.847 80.779 156.408 76.994 156.329 71.515L156.267 67.196C156.188 61.717 161.516 57.787 166.73 59.479L173.119 61.553Z" fill="#4A7C59"/>
<path d="M173.119 61.553C180.389 63.913 180.537 74.146 173.337 76.701L167.01 78.947C161.847 80.779 156.408 76.994 156.329 71.515L156.267 67.196C156.188 61.717 161.516 57.787 166.73 59.479L173.119 61.553Z" fill="#4A7C59"/>
<path d="M173.119 61.553C180.389 63.913 180.537 74.146 173.337 76.701L167.01 78.947C161.847 80.779 156.408 76.994 156.329 71.515L156.267 67.196C156.188 61.717 161.516 57.787 166.73 59.479L173.119 61.553Z" fill="#E64854"/>
</svg>
